<svg width="7" height="5" viewBox="0 0 7 5" fill="none" xmlns="http://www.w3.org/2000/svg">
<path d="M0.406 4.046V3.22C0.844667 3.528 1.358 3.682 1.946 3.682C2.37533 3.682 2.86067 3.54667 3.402 3.276C3.95267 3.00533 4.494 2.87 5.026 2.87C5.586 2.87 6.104 2.996 6.58 3.248V4.074C6.12267 3.75667 5.60467 3.598 5.026 3.598C4.58733 3.598 4.09733 3.738 3.556 4.018C3.01467 4.28867 2.478 4.424 1.946 4.424C1.358 4.424 0.844667 4.298 0.406 4.046ZM0.406 1.4V0.588C0.863333 0.896 1.37667 1.05 1.946 1.05C2.37533 1.05 2.86067 0.914666 3.402 0.644C3.95267 0.364 4.494 0.224 5.026 0.224C5.586 0.224 6.104 0.35 6.58 0.602V1.428C6.14133 1.12 5.62333 0.966 5.026 0.966C4.58733 0.966 4.09733 1.10133 3.556 1.372C3.01467 1.64267 2.478 1.778 1.946 1.778C1.37667 1.778 0.863333 1.652 0.406 1.4Z" fill="#848A8F"/>
</svg>
